# xmcd
#
# Track frame offsets:
# 150
# 17240
# 35670
# 57800
# 75755
# 93745
# 114075
# 133442
# 149107
# 161907
# 182440
# 202927
#
# Disc length: 2956 seconds
#
#
# Revision: 0
# Processed by: cddbd v1.5.1PL0 Copyright (c) Steve Scherf et al.
# Submitted via: FreeRIP 2.941 
#
DISCID=a30b8a0c
DTITLE=Bob Rea - Black Highway
DYEAR=1900
DGENRE=Country
TTITLE0=Black Highway
TTITLE1=What Might've Been
TTITLE2=Birmingham
TTITLE3=Concrete Rainbow
TTITLE4=Celibacy
TTITLE5=Blue Eyed Girl
TTITLE6=Good Ole What's Her Face
TTITLE7=Dead or Alive
TTITLE8=Three Days To Live
TTITLE9=Magic
TTITLE10=The Law
TTITLE11=Nobody Cries
EXTD=
EXTT0=
EXTT1=
EXTT2=
EXTT3=
EXTT4=
EXTT5=
EXTT6=
EXTT7=
EXTT8=
EXTT9=
EXTT10=
EXTT11=
PLAYORDER=
